<?xml version="1.0" encoding="UTF-8" standalone="no"?>
<!-- Created with Inkscape (http://www.inkscape.org/) -->

<svg
   width="210mm"
   height="297mm"
   viewBox="0 0 210 297"
   version="1.1"
   id="svg1"
   inkscape:version="1.3.2 (091e20e, 2023-11-25, custom)"
   sodipodi:docname="参照用ファイル.svg"
   xmlns:inkscape="http://www.inkscape.org/namespaces/inkscape"
   xmlns:sodipodi="http://sodipodi.sourceforge.net/DTD/sodipodi-0.dtd"
   xmlns="http://www.w3.org/2000/svg"
   xmlns:svg="http://www.w3.org/2000/svg">
  <sodipodi:namedview
     id="namedview1"
     pagecolor="#ffffff"
     bordercolor="#000000"
     borderopacity="0.25"
     inkscape:showpageshadow="2"
     inkscape:pageopacity="0.0"
     inkscape:pagecheckerboard="0"
     inkscape:deskcolor="#d1d1d1"
     inkscape:document-units="mm"
     showgrid="true"
     inkscape:zoom="0.61999999"
     inkscape:cx="750.00001"
     inkscape:cy="581.45162"
     inkscape:window-width="1920"
     inkscape:window-height="1111"
     inkscape:window-x="-9"
     inkscape:window-y="-9"
     inkscape:window-maximized="1"
     showguides="false"
     inkscape:current-layer="layer15">
    <inkscape:grid
       id="grid1"
       units="mm"
       originx="0"
       originy="0"
       spacingx="0.99999998"
       spacingy="1"
       empcolor="#0099e5"
       empopacity="0.30196078"
       color="#0099e5"
       opacity="0.14901961"
       empspacing="5"
       dotted="false"
       gridanglex="30"
       gridanglez="30"
       visible="true" />
  </sodipodi:namedview>
  <defs
     id="defs1">
    <pattern
       id="EMFhbasepattern"
       patternUnits="userSpaceOnUse"
       width="6"
       height="6"
       x="0"
       y="0" />
    <pattern
       id="EMFhbasepattern-3"
       patternUnits="userSpaceOnUse"
       width="6"
       height="6"
       x="0"
       y="0" />
    <pattern
       id="EMFhbasepattern-6"
       patternUnits="userSpaceOnUse"
       width="6"
       height="6"
       x="0"
       y="0" />
    <pattern
       id="EMFhbasepattern-5"
       patternUnits="userSpaceOnUse"
       width="6"
       height="6"
       x="0"
       y="0" />
    <pattern
       id="EMFhbasepattern-9"
       patternUnits="userSpaceOnUse"
       width="6"
       height="6"
       x="0"
       y="0" />
    <pattern
       id="EMFhbasepattern-32"
       patternUnits="userSpaceOnUse"
       width="6"
       height="6"
       x="0"
       y="0" />
    <pattern
       id="EMFhbasepattern-60"
       patternUnits="userSpaceOnUse"
       width="6"
       height="6"
       x="0"
       y="0" />
    <pattern
       id="EMFhbasepattern-1"
       patternUnits="userSpaceOnUse"
       width="6"
       height="6"
       x="0"
       y="0" />
    <pattern
       id="EMFhbasepattern-2"
       patternUnits="userSpaceOnUse"
       width="6"
       height="6"
       x="0"
       y="0" />
    <pattern
       id="EMFhbasepattern-8"
       patternUnits="userSpaceOnUse"
       width="6"
       height="6"
       x="0"
       y="0" />
    <pattern
       id="EMFhbasepattern-14"
       patternUnits="userSpaceOnUse"
       width="6"
       height="6"
       x="0"
       y="0" />
    <pattern
       id="EMFhbasepattern-28"
       patternUnits="userSpaceOnUse"
       width="6"
       height="6"
       x="0"
       y="0" />
    <pattern
       id="EMFhbasepattern-0"
       patternUnits="userSpaceOnUse"
       width="6"
       height="6"
       x="0"
       y="0" />
    <pattern
       id="EMFhbasepattern-65"
       patternUnits="userSpaceOnUse"
       width="6"
       height="6"
       x="0"
       y="0" />
    <pattern
       id="EMFhbasepattern-33"
       patternUnits="userSpaceOnUse"
       width="6"
       height="6"
       x="0"
       y="0" />
    <pattern
       id="EMFhbasepattern-85"
       patternUnits="userSpaceOnUse"
       width="6"
       height="6"
       x="0"
       y="0" />
    <pattern
       id="EMFhbasepattern-66"
       patternUnits="userSpaceOnUse"
       width="6"
       height="6"
       x="0"
       y="0" />
    <pattern
       id="EMFhbasepattern-94"
       patternUnits="userSpaceOnUse"
       width="6"
       height="6"
       x="0"
       y="0" />
    <pattern
       id="EMFhbasepattern-13"
       patternUnits="userSpaceOnUse"
       width="6"
       height="6"
       x="0"
       y="0" />
    <pattern
       id="EMFhbasepattern-948"
       patternUnits="userSpaceOnUse"
       width="6"
       height="6"
       x="0"
       y="0" />
    <pattern
       id="EMFhbasepattern-9488"
       patternUnits="userSpaceOnUse"
       width="6"
       height="6"
       x="0"
       y="0" />
    <pattern
       id="EMFhbasepattern-94882"
       patternUnits="userSpaceOnUse"
       width="6"
       height="6"
       x="0"
       y="0" />
    <pattern
       id="EMFhbasepattern-948824"
       patternUnits="userSpaceOnUse"
       width="6"
       height="6"
       x="0"
       y="0" />
    <pattern
       id="EMFhbasepattern-9488245"
       patternUnits="userSpaceOnUse"
       width="6"
       height="6"
       x="0"
       y="0" />
    <pattern
       id="EMFhbasepattern-94882455"
       patternUnits="userSpaceOnUse"
       width="6"
       height="6"
       x="0"
       y="0" />
  </defs>
  <g
     inkscape:groupmode="layer"
     id="layer15"
     inkscape:label="レイヤー01">
    <g
       id="g15"
       transform="translate(9.388441,2.5604839)">
      <path
         inkscape:label="テ"
         d="m 378.08657,424.91211 c 0.0645,0.1289 0.0645,1.67572 -0.70896,2.96474 m -1.22456,-2.70694 c 0.2578,-0.0645 3.02919,-0.5156 3.02919,-0.45115 m -2.57803,-0.90231 c 0,0 0.70896,-0.0645 1.28901,-0.1289 0.51561,-0.0645 1.35347,-0.12891 1.35347,-0.12891"
         style="fill:none;stroke:#000000;stroke-width:0.128902px;stroke-linecap:round;stroke-linejoin:round;stroke-miterlimit:4;stroke-dasharray:none;stroke-opacity:1"
         transform="translate(-376.153,-410.718)"
         id="path3" />
      <path
         inkscape:label="ス"
         d="m 332.06873,425.81442 c 0.1289,0.1289 1.28901,2.12687 1.41792,1.99797 m -2.83584,-3.48034 c 0.45115,-0.1289 1.03121,-0.19335 1.61127,-0.19335 0.58005,0 1.03121,-0.0644 1.03121,-0.0644 0,0 -1.48237,1.93352 -1.99797,2.44912 -0.58006,0.51561 -1.41792,1.41792 -1.41792,1.41792"
         style="fill:none;stroke:#000000;stroke-width:0.128902px;stroke-linecap:round;stroke-linejoin:round;stroke-miterlimit:4;stroke-dasharray:none;stroke-opacity:1"
         transform="translate(-324.784,-411.008)"
         id="path6" />
      <path
         inkscape:label="ト"
         d="m 385.36951,425.23437 c 0,0 1.80462,0.32225 1.93353,0.45115 m -1.61128,-2.90028 c -0.0644,0.0645 -0.19335,0.58005 -0.32225,1.54681 -0.0645,0.96676 -0.1289,3.5448 0,3.60924"
         style="fill:none;stroke:#000000;stroke-width:0.128902px;stroke-linecap:round;stroke-linejoin:round;stroke-miterlimit:4;stroke-dasharray:none;stroke-opacity:1"
         transform="translate(-374.592,-410.363)"
         id="path7" />
      <path
         inkscape:label="漢"
         d="m 243.10794,115.86426 c 0,0 0.76139,0.69793 0.76139,0.76138 m -1.14208,1.07863 c 0.38069,0 1.07862,-0.19035 1.07862,-0.19035 m -1.20552,2.09381 c 0.19034,-0.2538 1.45932,-1.71311 1.58622,-1.71311 m 0.50759,-2.53795 c 0.38068,0.0634 0.82482,0.0634 1.26897,0.0634 0.44414,-0.0634 0.95172,-0.1269 1.01518,-0.0634 m -1.77657,-0.2538 c 0.1269,0.1269 0.19035,1.01518 0.19035,1.01518 m 0.82483,-0.95173 c 0.12689,0.0634 0,0.63449 -0.31724,0.88828 m -1.26898,0.44414 c 0.31724,0 0.76139,0.44414 0.82484,0.63449 m -0.44414,-0.57104 c 0.0634,-0.0634 0.44414,-0.25379 0.69794,-0.25379 0.25379,-0.0634 0.95172,-0.1269 1.14207,0.1269 -0.57103,0.50758 -0.57103,0.50758 -0.57103,0.50758 m -0.82484,0.2538 c 0.44414,-0.0634 1.14207,-0.1269 1.14207,-0.1269 m -1.84001,0.76139 c 0.5076,-0.0634 1.01518,-0.19035 1.20553,-0.19035 0.12689,-0.0634 0.82483,-0.19034 0.88828,-0.1269 m -2.79174,1.39587 c 0.57103,-0.19034 1.64967,-0.50758 1.90346,-0.57104 0.19035,0 1.26897,-0.0634 1.26897,-0.0634 m -1.39586,-1.84 c 0,0.31724 0.12689,1.01518 0,1.52276 -0.1269,0.5076 -0.6345,1.58622 -1.90347,2.03036 m 1.96691,-1.96691 c 0.1269,0.1269 0.31724,0.76139 0.44413,0.88829 0.1269,0.19033 1.01518,1.07862 1.07864,1.07862"
         style="fill:none;stroke:#000000;stroke-width:0.126897px;stroke-linecap:round;stroke-linejoin:round;stroke-miterlimit:4;stroke-dasharray:none;stroke-opacity:1"
         transform="translate(-227.889,-102.546)"
         id="path9" />
      <path
         inkscape:label="字"
         d="m 552.19765,115.71799 c 0,0 0.32226,0.70896 -0.0644,1.09565 m -1.93352,0.25781 c 0.1289,0 0.83786,0.51561 1.09567,1.03121 m 0.1289,-1.03121 c 0,0 1.86907,-0.32225 2.12688,-0.0645 0,0 -0.12891,0.3867 -0.45117,0.51561 m -1.54681,0.58006 c 0,0 1.48237,-0.32225 1.54681,-0.2578 0.0645,0.1289 0.0645,0.1289 -0.70895,1.03122 0,0 0.32225,0.32225 0.3867,0.96675 0.0645,0.58006 -0.6445,1.61127 -0.70896,1.61127 -0.0645,0 -0.7734,-0.3867 -0.83785,-0.45115 m -0.70896,-0.96676 c 0.58006,-0.1289 1.80462,-0.45116 2.32023,-0.45116 0.58005,-0.0645 1.09566,-0.1289 1.16011,-0.1289"
         style="fill:none;stroke:#000000;stroke-width:0.128902px;stroke-linecap:round;stroke-linejoin:round;stroke-miterlimit:4;stroke-dasharray:none;stroke-opacity:1"
         transform="translate(-528.667,-103.586)"
         id="path12" />
      <path
         inkscape:label="あ"
         d="m 241.10864,373.18118 c 0,0 -0.96677,2.25577 -1.80463,2.44912 -0.83785,0.25781 -1.16011,-0.0644 -1.09566,-0.32225 0,-0.19335 1.16011,-1.54681 2.70693,-1.74017 1.54682,-0.19335 2.12688,1.54682 0.38671,3.02919 m -0.96677,-5.67167 c 0.0645,0.0645 0.19336,0.51561 0.0645,0.70896 -0.0645,0.19335 -1.28902,4.0604 0.2578,3.67369 m -1.80462,-2.83583 c 0,0 0.45115,0.3867 1.22456,0.19335 0.77341,-0.19335 1.48237,-0.45115 1.48237,-0.45115"
         style="fill:none;stroke:#000000;stroke-width:0.128902px;stroke-linecap:round;stroke-linejoin:round;stroke-miterlimit:4;stroke-dasharray:none;stroke-opacity:1"
         transform="translate(-210.865,-358.761)"
         id="path13" />
      <path
         inkscape:label="い"
         d="m 248.45602,372.47222 c 0,0 0.90231,2.19133 0.77341,2.70693 m -3.54479,-2.25577 c 0.0644,0.19335 0.1289,0.6445 0.19335,1.09565 0.0645,0.38671 0.19335,1.22457 0.77341,1.54683 0,0 0.2578,-0.19335 0.32225,-0.32226"
         style="fill:none;stroke:#000000;stroke-width:0.128902px;stroke-linecap:round;stroke-linejoin:round;stroke-miterlimit:4;stroke-dasharray:none;stroke-opacity:1"
         transform="translate(-212.182,-359.019)"
         id="path14" />
      <path
         inkscape:label="う"
         d="m 254.51439,373.50343 c 0,0 0.96677,-0.70896 1.54682,-0.64451 0.5156,0 0.77341,0.38671 0.77341,0.77342 0,0.38669 -0.6445,2.38467 -1.22456,2.83582 m 0.19335,-5.47831 c 0.0644,0.19336 0.45115,0.58005 0.51561,0.77341 0,0.1289 -0.0645,0.32225 -0.1289,0.3867"
         style="fill:none;stroke:#000000;stroke-width:0.128902px;stroke-linecap:round;stroke-linejoin:round;stroke-miterlimit:4;stroke-dasharray:none;stroke-opacity:1"
         transform="translate(-215.454,-358.729)"
         id="path15" />
    </g>
  </g>
</svg>
